<svg width="873" height="462" viewBox="0 0 873 462" fill="none" xmlns="http://www.w3.org/2000/svg">
<path d="M683.668 3.74344C683.668 1.67626 682.013 0.000488281 679.972 0.000488281H622.54C620.499 0.000488281 618.844 1.67626 618.844 3.74344V16.012C618.844 18.0792 620.499 19.755 622.54 19.755H626.738V36.9922C611.863 40.3139 598.048 46.5041 585.884 54.9621L579.44 46.9924L581.332 45.4235C582.208 44.6968 582.332 43.3818 581.608 42.4865L577.311 37.1725C576.587 36.2771 575.29 36.1404 574.414 36.8672L549.757 57.3168C548.881 58.0436 548.757 59.3586 549.481 60.2539L553.778 65.5679C554.502 66.4633 555.799 66.6 556.676 65.8732L558.568 64.3035L565.486 72.8596L565.866 72.5449C546.613 93.7363 534.853 122.047 534.853 153.145C534.853 163.677 536.202 173.889 538.734 183.614H568.269C565.225 174.461 563.575 164.658 563.575 154.463C563.575 104.151 603.76 63.3654 653.332 63.3654C671.185 63.3654 687.821 68.6557 701.8 77.776V45.4422C693.604 41.5343 684.89 38.5617 675.79 36.6598V19.755H679.972C682.013 19.755 683.668 18.0792 683.668 16.012V3.74344Z" fill="#FF5050"/>
<path d="M719.257 104.866C723.3 110.547 722.04 118.48 716.442 122.583L653.694 175.042C648.96 178.511 642.492 178.194 638.11 174.278L605.576 145.2C600.393 140.569 599.892 132.55 604.455 127.29C609.019 122.03 616.92 121.521 622.102 126.153L647.145 148.535L701.8 102.008C707.398 97.9045 715.214 99.1839 719.257 104.866Z" fill="#FF5050"/>
<path d="M0 373.734V94.9738H62.5097V209.989H189.406V94.9738H251.771V373.734H189.406V258.582H62.5097V373.734H0Z" fill="#3E479B"/>
<path d="M731.697 375.489V158.968H790.891V197.631H793.184C797.197 183.877 803.934 173.49 813.393 166.47C822.853 159.352 833.746 155.794 846.072 155.794C849.129 155.794 852.426 155.986 855.961 156.371C858.595 156.658 865.105 158.466 869.359 159.648C870.815 160.052 872.007 160.383 872.689 160.555V215.086C869.823 214.221 858.445 210.855 853.381 210.181C848.317 209.508 843.683 209.172 839.479 209.172C830.497 209.172 822.471 211.143 815.4 215.086C808.425 218.933 802.883 224.319 798.774 231.244C794.761 238.169 792.754 246.151 792.754 255.192V375.489H731.697Z" fill="#3E479B"/>
<path fill-rule="evenodd" clip-rule="evenodd" d="M292.854 263.248C289.346 272.613 287.591 285.489 287.591 301.878C287.591 319.827 289.112 333.614 292.153 343.238C295.428 352.603 301.51 359.367 310.399 363.529C319.522 367.691 327.078 370.032 342.985 370.552C359.126 371.073 380.179 371.333 401.12 371.333H505.763V238.666C505.763 225.139 505.412 213.693 504.711 204.328C504.009 194.964 502.138 187.29 499.097 181.307C496.289 175.063 491.962 170.381 486.114 167.26C480.266 163.878 472.078 161.407 461.551 159.846C451.025 158.285 442.767 157.375 426.86 157.114C424.783 157.08 422.91 157.048 421.169 157.018C409.772 156.822 404.074 156.724 384.39 156.724H296.012V191.842H384.39C397.773 191.842 400.07 191.993 404.663 192.296C406.092 192.39 407.742 192.499 410.017 192.622C419.842 193.143 426.977 194.703 431.421 197.305C435.866 199.906 438.439 203.808 439.141 209.011C440.076 214.213 440.544 221.367 440.544 230.471H400.769C380.998 230.471 360.647 231.122 344.74 232.422C328.833 233.723 321.159 236.845 311.802 241.787C302.679 246.47 296.363 253.623 292.854 263.248ZM400.769 265.589H440.544V336.215H401.12C389.423 336.215 384.975 336.345 377.723 336.605C370.705 336.865 365.325 336.085 361.582 334.264C357.839 332.443 355.383 329.191 354.214 324.509C353.044 319.566 352.459 312.023 352.459 301.878C352.459 293.033 353.161 286.27 354.565 281.587C356.202 276.645 358.892 273.003 362.635 270.662C366.612 268.321 372.109 266.89 379.127 266.37C386.144 265.849 390.008 265.589 400.769 265.589Z" fill="#3E479B"/>
<path d="M635.969 376.047V205.335H701.254V376.047H635.969Z" fill="#3E479B"/>
<path d="M603.363 205.334H542.306V388.858C542.306 397.226 540.299 403.477 536.286 407.613C532.368 411.844 525.489 413.96 515.647 413.96C514.309 413.96 513.067 413.912 511.92 413.816C510.678 413.816 509.245 413.768 507.621 413.672V461.712C509.818 461.808 511.92 461.856 513.927 461.856C515.838 461.952 517.845 462 519.947 462C537.241 462 552.1 459.548 564.521 454.643C577.038 449.738 586.641 441.996 593.33 431.416C600.018 420.837 603.363 406.987 603.363 389.868V205.334Z" fill="#3E479B"/>
</svg>
